<?xml version="1.0" encoding="UTF-8" standalone="no"?>
<!-- Created with Inkscape (http://www.inkscape.org/) -->

<svg
   xmlns:dc="http://purl.org/dc/elements/1.1/"
   xmlns:cc="http://creativecommons.org/ns#"
   xmlns:rdf="http://www.w3.org/1999/02/22-rdf-syntax-ns#"
   xmlns:svg="http://www.w3.org/2000/svg"
   xmlns="http://www.w3.org/2000/svg"
   xmlns:sodipodi="http://sodipodi.sourceforge.net/DTD/sodipodi-0.dtd"
   xmlns:inkscape="http://www.inkscape.org/namespaces/inkscape"
   id="svg3336"
   version="1.1"
   inkscape:version="0.91 r13725"
   xml:space="preserve"
   width="435.86249"
   height="118.75"
   viewBox="0 0 435.86249 118.75"
   sodipodi:docname="2019.01.24_achelos Logo rechts.svg"><metadata
     id="metadata3342"><rdf:RDF><cc:Work
         rdf:about=""><dc:format>image/svg+xml</dc:format><dc:type
           rdf:resource="http://purl.org/dc/dcmitype/StillImage" /><dc:title></dc:title></cc:Work></rdf:RDF></metadata><defs
     id="defs3340" /><sodipodi:namedview
     pagecolor="#ffffff"
     bordercolor="#666666"
     borderopacity="1"
     objecttolerance="10"
     gridtolerance="10"
     guidetolerance="10"
     inkscape:pageopacity="0"
     inkscape:pageshadow="2"
     inkscape:window-width="2560"
     inkscape:window-height="1377"
     id="namedview3338"
     showgrid="false"
     inkscape:zoom="4.5151855"
     inkscape:cx="217.93124"
     inkscape:cy="59.375"
     inkscape:window-x="1912"
     inkscape:window-y="-8"
     inkscape:window-maximized="1"
     inkscape:current-layer="g3344" /><g
     id="g3344"
     inkscape:groupmode="layer"
     inkscape:label="ink_ext_XXXXXX"
     transform="matrix(1.25,0,0,-1.25,0,118.75)"><g
       id="g3346"
       transform="scale(0.1,0.1)"><path
         d="m 1728.18,419.598 c -13.8,0 -26.21,-2.754 -37.23,-8.25 -11.04,-5.5 -20.49,-12.868 -28.36,-22.094 -7.88,-9.231 -13.99,-19.836 -18.33,-31.809 -4.33,-11.98 -6.49,-24.453 -6.49,-37.402 0,-13.75 1.97,-26.914 5.91,-39.473 3.94,-12.566 9.74,-23.757 17.44,-33.574 7.67,-9.824 17.12,-17.676 28.35,-23.562 11.22,-5.903 24.32,-8.829 39.29,-8.829 15.36,0 28.75,2.833 40.17,8.524 11.43,5.691 21.08,13.351 28.96,22.976 7.87,9.622 13.78,20.715 17.73,33.293 3.93,12.559 5.9,25.911 5.9,40.047 0,13.75 -2.17,26.711 -6.5,38.891 -4.34,12.168 -10.44,22.769 -18.31,31.805 -7.88,9.023 -17.63,16.195 -29.25,21.5 -11.62,5.3 -24.71,7.957 -39.28,7.957 z m 138.34,-241.11 -47.5,0 0,38.352 -1.25,0 c -24.36,-30.664 -56.2,-45.985 -95.5,-45.985 -20.43,0 -38.8,4.024 -55.1,12.079 -16.31,8.054 -30.26,18.769 -41.86,32.136 -11.6,13.364 -20.43,28.789 -26.53,46.289 -6.1,17.5 -9.13,35.879 -9.13,55.149 0,19.648 3.03,38.418 9.13,56.308 6.1,17.891 14.84,33.52 26.23,46.891 11.4,13.367 25.35,23.984 41.86,31.844 16.5,7.863 35.17,11.797 56,11.797 18.86,0 36.55,-4.129 53.05,-12.383 16.5,-8.262 30.46,-19.852 41.85,-34.793 l 1.53,0 -0.28,39.531 47.5,0 0,-277.215"
         style="fill:#686f77;fill-opacity:1;fill-rule:nonzero;stroke:none"
         id="path3348"
         inkscape:connector-curvature="0" /><path
         d="m 2159.72,373.117 -1.18,0 c -11.02,13.723 -23.41,24.906 -37.18,33.531 -13.77,8.633 -30.09,12.95 -48.97,12.95 -14.16,0 -27.24,-2.754 -39.23,-8.25 -12,-5.5 -22.32,-12.965 -30.97,-22.387 -8.65,-9.426 -15.44,-20.313 -20.36,-32.688 -4.92,-12.382 -7.37,-25.437 -7.37,-39.168 0,-13.75 2.25,-26.82 6.78,-39.191 4.52,-12.371 10.91,-23.269 19.17,-32.684 8.26,-9.433 18.29,-16.894 30.09,-22.394 11.8,-5.496 24.98,-8.231 39.54,-8.231 20.06,0 37.27,4.208 51.62,12.633 14.36,8.45 27.24,20.11 38.64,35.012 l 1.19,0 0,-63.098 c -13.77,-9.043 -27.74,-16.023 -41.9,-20.933 -14.16,-4.903 -29.49,-7.364 -46.01,-7.364 -20.85,0 -40.33,3.731 -58.41,11.192 -18.1,7.469 -33.71,17.691 -46.84,30.664 -13.13,12.977 -23.42,28.394 -30.85,46.289 -7.44,17.898 -11.15,37.254 -11.15,58.105 0,20.426 3.91,39.586 11.74,57.481 7.82,17.891 18.4,33.422 31.73,46.594 13.33,13.164 28.94,23.488 46.84,30.957 17.89,7.472 37.07,11.211 57.52,11.211 14.94,0 29.8,-2.364 44.54,-7.078 14.75,-4.719 28.42,-11.594 41.02,-20.637 l 0,-62.516"
         style="fill:#686f77;fill-opacity:1;fill-rule:nonzero;stroke:none"
         id="path3350"
         inkscape:connector-curvature="0" /><path
         d="m 2282.16,665.223 0,-242.078 1.25,-1.184 c 9.8,13.398 21.09,23.644 33.86,30.742 12.75,7.09 27.77,10.645 45.05,10.645 19.23,0 34.94,-3.25 47.11,-9.735 12.16,-6.496 21.77,-15.246 28.84,-26.261 7.07,-11.016 11.88,-23.809 14.44,-38.364 2.55,-14.55 3.83,-29.883 3.83,-46.015 l 0,-164.618 -47.5,0 0,156.297 c 0,11.004 -0.5,21.719 -1.48,32.161 -0.98,10.417 -3.33,19.46 -7.05,27.128 -3.72,7.661 -9.49,13.852 -17.32,18.579 -7.84,4.714 -18.6,7.078 -32.31,7.078 -16.05,0 -28.69,-3.446 -37.89,-10.321 -9.2,-6.886 -16.05,-15.629 -20.56,-26.254 -4.5,-10.625 -7.34,-22.421 -8.51,-35.39 -1.17,-12.981 -1.76,-25.567 -1.76,-37.754 l 0,-131.524 -47.5,0 0,486.868 47.5,0"
         style="fill:#686f77;fill-opacity:1;fill-rule:nonzero;stroke:none"
         id="path3352"
         inkscape:connector-curvature="0" /><path
         d="m 2737.6,347.105 c -1.58,9.813 -4.82,19.137 -9.74,27.989 -4.92,8.847 -10.91,16.597 -17.99,23.277 -7.08,6.688 -15.25,11.891 -24.49,15.621 -9.25,3.731 -18.98,5.606 -29.21,5.606 -10.22,0 -20.05,-1.875 -29.49,-5.606 -9.44,-3.73 -18,-8.933 -25.67,-15.621 -7.68,-6.68 -14.06,-14.43 -19.17,-23.277 -5.12,-8.852 -8.46,-18.176 -10.03,-27.989 l 165.79,0 z m -168.29,-40 c 0,-12.98 2.25,-25.058 6.79,-36.25 4.52,-11.195 10.71,-20.917 18.58,-29.164 7.86,-8.25 17.4,-14.832 28.61,-19.734 11.21,-4.91 23.5,-7.352 36.88,-7.352 20.06,0 36.87,5.387 50.45,16.211 13.56,10.829 24.87,24.493 33.92,41.012 l 40.12,-23.008 c -13.38,-24.793 -30.98,-43.992 -52.8,-57.586 -21.84,-13.586 -46.91,-20.379 -75.23,-20.379 -20.85,0 -39.63,3.731 -56.34,11.192 -16.72,7.469 -30.96,17.598 -42.71,30.371 -11.75,12.773 -20.75,27.812 -27.01,45.113 -6.26,17.297 -9.39,35.969 -9.39,56.028 0,20.437 2.93,39.804 8.8,58.086 5.87,18.281 14.48,34.203 25.84,47.769 11.35,13.563 25.38,24.277 42.1,32.137 16.72,7.863 35.89,11.797 57.53,11.797 22.42,0 42.08,-4.227 59,-12.676 16.91,-8.457 30.97,-19.949 42.18,-34.492 11.21,-14.551 19.37,-31.254 24.49,-50.121 5.11,-18.868 7.08,-38.528 5.9,-58.954 l -217.71,0"
         style="fill:#686f77;fill-opacity:1;fill-rule:nonzero;stroke:none"
         id="path3354"
         inkscape:connector-curvature="0" /><path
         d="m 2851.14,178.355 47.5,0 0,486.867 -47.5,0 0,-486.867 z"
         style="fill:#686f77;fill-opacity:1;fill-rule:nonzero;stroke:none"
         id="path3356"
         inkscape:connector-curvature="0" /><path
         d="m 3107.26,419.598 c -14.54,0 -27.9,-2.754 -40.09,-8.25 -12.19,-5.5 -22.6,-12.868 -31.24,-22.094 -8.64,-9.231 -15.32,-20.031 -20.04,-32.395 -4.72,-12.375 -7.07,-25.625 -7.07,-39.754 0,-14.152 2.35,-27.414 7.07,-39.777 4.72,-12.375 11.4,-23.269 20.04,-32.695 8.64,-9.422 19.05,-16.778 31.24,-22.09 12.19,-5.305 25.55,-7.938 40.09,-7.938 14.53,0 27.89,2.633 40.08,7.938 12.18,5.312 22.59,12.668 31.24,22.09 8.64,9.426 15.32,20.32 20.04,32.695 4.71,12.363 7.08,25.625 7.08,39.777 0,14.129 -2.37,27.379 -7.08,39.754 -4.72,12.364 -11.4,23.164 -20.04,32.395 -8.65,9.226 -19.06,16.594 -31.24,22.094 -12.19,5.496 -25.55,8.25 -40.08,8.25 z m 0,-248.743 c -20.1,0 -39.01,3.731 -56.73,11.192 -17.73,7.469 -33.18,17.793 -46.38,30.976 -13.19,13.153 -23.63,28.582 -31.31,46.29 -7.68,17.671 -11.52,36.746 -11.52,57.195 0,20.437 3.74,39.504 11.22,57.195 7.48,17.695 17.82,33.231 31.03,46.598 13.19,13.359 28.65,23.879 46.37,31.543 17.73,7.668 36.83,11.504 57.32,11.504 20.48,0 39.58,-3.836 57.3,-11.504 17.73,-7.664 33.19,-18.184 46.39,-31.543 13.19,-13.367 23.53,-28.903 31.02,-46.598 7.48,-17.691 11.23,-36.758 11.23,-57.195 0,-20.449 -3.85,-39.524 -11.53,-57.195 -7.68,-17.708 -18.12,-33.137 -31.32,-46.29 -13.19,-13.183 -28.65,-23.507 -46.37,-30.976 -17.73,-7.461 -36.63,-11.192 -56.72,-11.192"
         style="fill:#686f77;fill-opacity:1;fill-rule:nonzero;stroke:none"
         id="path3358"
         inkscape:connector-curvature="0" /><path
         d="m 3430.12,391.273 c -3.15,7.469 -8.08,14.067 -14.76,19.77 -6.69,5.703 -14.35,8.555 -23,8.555 -8.27,0 -16.04,-2.852 -23.31,-8.543 -7.28,-5.703 -10.91,-13.075 -10.91,-22.114 0,-6.293 1.86,-11.691 5.6,-16.211 3.74,-4.523 8.57,-8.656 14.48,-12.375 5.89,-3.742 12.69,-7.082 20.37,-10.031 7.67,-2.945 15.65,-6.187 23.92,-9.722 8.26,-3.536 16.24,-7.473 23.92,-11.789 7.67,-4.317 14.47,-9.52 20.38,-15.618 5.9,-6.09 10.72,-13.367 14.46,-21.812 3.74,-8.449 5.62,-18.567 5.62,-30.356 0,-12.964 -2.45,-25.047 -7.34,-36.25 -4.89,-11.199 -11.64,-20.73 -20.25,-28.589 -8.61,-7.864 -18.52,-14.055 -29.71,-18.567 -11.19,-4.512 -23.28,-6.766 -36.26,-6.766 -23.6,0 -43.95,6.211 -61.06,18.614 -17.11,12.41 -29.41,29.636 -36.88,51.679 l 41.9,17.704 c 5.9,-12.989 12.87,-23.602 20.93,-31.868 8.07,-8.257 19.97,-12.379 35.71,-12.379 12.58,0 23.2,3.915 31.85,11.778 8.66,7.847 12.98,18.074 12.98,30.652 0,10.215 -3.06,18.469 -9.19,24.758 -6.12,6.285 -13.92,11.785 -23.41,16.504 -9.48,4.707 -19.55,9.129 -30.21,13.262 -10.66,4.129 -20.74,9.226 -30.23,15.32 -9.48,6.094 -17.28,13.652 -23.4,22.695 -6.13,9.043 -9.18,20.828 -9.18,35.371 0,11.785 2.16,22.504 6.51,32.133 4.34,9.629 10.36,17.883 18.06,24.758 7.69,6.875 16.46,12.176 26.31,15.906 9.84,3.731 20.46,5.606 31.88,5.606 16.12,0 30.87,-4.93 44.25,-14.785 13.37,-9.852 23.2,-22.059 29.5,-36.629 l -39.53,-20.661"
         style="fill:#686f77;fill-opacity:1;fill-rule:nonzero;stroke:none"
         id="path3360"
         inkscape:connector-curvature="0" /><path
         d="m 0.00390625,294.035 0,655.965 L 1287.5,950 l 0,-583.578 c 0,0 0,0 -56.94,12.969 -53.12,12.089 -84.27,17.351 -127.57,23.777 -44.93,6.672 -75.5,11.074 -128.97,16.809 -44.45,4.761 -94.676,8.722 -174.653,9.461 -70.347,0.648 -77.5,-1.403 -119.054,-2.602 -30.36,-0.879 -32.836,-1.285 -97.137,-6.461 C 525.461,415.73 457.727,407.172 409.863,398.898 357.887,389.906 344.195,388.355 289.449,376.227 236.832,364.566 199.977,355.109 166.852,346.32 137.453,338.512 137.016,338.09 102.141,327.672 71.8125,318.598 69.8516,317.77 33.6055,305.688 13.5039,298.988 0.00390625,294.035 0.00390625,294.035"
         style="fill:#f46e28;fill-opacity:1;fill-rule:nonzero;stroke:none"
         id="path3362"
         inkscape:connector-curvature="0" /><path
         d="m 0.00390625,250.531 0,-76.258 c 0,0 21.15239375,6.141 38.21489375,10.704 17.0664,4.57 43.8867,11.543 57.0898,14.734 13.1994,3.191 31.0704,7.5 46.5004,10.906 15.429,3.41 37.136,8.086 50.062,10.664 12.926,2.571 25.742,5.149 40.621,7.832 14.879,2.7 38.805,6.867 48.442,8.418 9.64,1.555 30.382,4.817 42.332,6.528 11.941,1.699 39.91,5.515 52.382,7.019 12.469,1.504 40.946,4.817 58.719,6.504 17.774,1.691 46.071,4.141 55.664,4.856 9.59,0.703 26.481,1.992 44.614,2.964 18.144,0.981 46.293,2.317 60.035,2.739 13.742,0.418 26.582,1.582 40.008,1.394 13.429,-0.183 44.066,0.098 52.191,0.02 8.125,-0.071 30.668,-0.215 46.57,-0.614 15.903,-0.402 29.571,-0.714 42.168,-1.562 12.594,-0.852 37.559,-2.668 49.094,-3.684 11.531,-1.015 33.012,-2.976 45.227,-4.289 12.218,-1.297 29.886,-3.269 38.277,-4.285 8.39,-1.023 40.398,-5.144 50.898,-6.66 10.492,-1.504 42.397,-6.328 53.687,-8.203 11.3,-1.883 34.71,-5.852 50.3,-8.797 15.6,-2.949 38.89,-7.473 52.86,-10.434 13.96,-2.949 37.23,-7.976 51.18,-11.25 13.96,-3.257 42.24,-10.093 53.46,-12.984 11.24,-2.895 25.32,-6.543 37.24,-9.809 11.93,-3.269 29.66,-8.257 29.66,-8.257 l 0,85.359 c 0,0 -22.36,6.582 -31.82,9.219 -9.48,2.644 -31.67,8.75 -44.8,12.097 -13.12,3.364 -27.09,6.899 -39.05,9.719 -11.96,2.832 -25.44,5.969 -35.31,8.137 -9.87,2.156 -23.59,5.144 -34.71,7.39 -11.1,2.239 -24.98,5 -35.24,6.895 -10.25,1.895 -21.08,3.867 -29.38,5.293 -8.3,1.418 -21.92,3.738 -33.5,5.527 -11.569,1.785 -24.975,3.809 -34.655,5.149 -9.683,1.336 -20.879,2.929 -34.656,4.59 -13.781,1.66 -20.149,2.507 -35.59,4.109 -15.437,1.602 -50.016,4.894 -65.34,6.016 -15.32,1.125 -29.066,2.089 -40.301,2.714 -11.238,0.633 -24.39,1.36 -36.585,1.829 -12.192,0.464 -29.692,1.062 -39.059,1.265 -9.371,0.207 -19.691,0.5 -36.566,0.559 -16.875,0.051 -29.375,0.215 -39.375,0 -10.004,-0.215 -38.129,-0.774 -50.321,-1.223 -12.191,-0.445 -28.687,-1.043 -45.308,-2.012 -16.621,-0.972 -27.957,-1.609 -42.746,-2.761 -14.793,-1.153 -42.778,-3.504 -57.879,-5.098 -15.102,-1.582 -42.551,-4.59 -60.649,-7.012 -18.097,-2.429 -50.406,-7.004 -68.043,-9.941 -17.64,-2.93 -47.601,-8.137 -63.847,-11.336 -16.235,-3.195 -38.637,-7.707 -53.407,-10.996 -14.769,-3.293 -29.093,-6.524 -39.996,-9.16 -10.906,-2.637 -34.519,-8.457 -48.371,-12.153 C 97.1445,279.215 73.1758,272.66 61.5938,269.281 50.0117,265.91 38.6875,262.328 26.8789,259.066 9.99219,254.398 0.00390625,250.531 0.00390625,250.531"
         style="fill:#f46e28;fill-opacity:1;fill-rule:nonzero;stroke:none"
         id="path3364"
         inkscape:connector-curvature="0" /><path
         d="m 0.00390625,126.098 0,-126.09409375 1287.49609375,0 0,70.56639375 c 0,0 -13.21,4.7774 -35.78,12.0703 -22.57,7.2852 -53.59,16.9258 -63.13,19.7264 -9.55,2.813 -58.75,16.602 -68.04,19.016 -9.29,2.422 -52.61,13.191 -63.74,15.742 -11.13,2.547 -77.747,16.59 -88.095,18.531 -10.36,1.938 -73.016,11.828 -86.211,14.172 -13.199,2.344 -65.832,9.363 -82.941,11.199 -17.11,1.836 -108.719,9.453 -119.129,10.024 -10.411,0.574 -92.938,3.66 -116.68,3.66 -23.746,0.012 -89.961,-1.074 -112.082,-2.156 -22.117,-1.094 -73.258,-4.2 -96.25,-6.328 -22.992,-2.129 -75.52,-7.739 -93.262,-10.11 -17.742,-2.375 -90.152,-13.347 -111.265,-17.285 -21.114,-3.926 -57.0825,-10.945 -75.313,-14.98"
         style="fill:#f46e28;fill-opacity:1;fill-rule:nonzero;stroke:none"
         id="path3366"
         inkscape:connector-curvature="0" /></g></g></svg>